<svg width="128" height="128" viewBox="0 0 128 128" fill="none" xmlns="http://www.w3.org/2000/svg">
  <defs>
    <linearGradient id="flow" x1="18" y1="22" x2="112" y2="108" gradientUnits="userSpaceOnUse">
      <stop stop-color="#22D3EE"/>
      <stop offset="1" stop-color="#2563EB"/>
    </linearGradient>
  </defs>
  <rect width="128" height="128" rx="30" fill="#081525"/>
  <path d="M92 34C82 25 70 21 57 23C36 26 21 43 21 64C21 87 39 105 62 105C75 105 87 100 96 91" stroke="url(#flow)" stroke-width="12" stroke-linecap="round"/>
  <path d="M45 69C52 76 61 79 70 77C80 75 87 69 92 60" stroke="white" stroke-width="7" stroke-linecap="round" opacity=".95"/>
  <path d="M40 54L55 43L70 54" stroke="white" stroke-width="7" stroke-linecap="round" stroke-linejoin="round" opacity=".95"/>
  <path d="M48 52V67M62 52V69" stroke="white" stroke-width="6" stroke-linecap="round" opacity=".95"/>
</svg>
