<svg width="128" height="128" viewBox="0 0 128 128" fill="none" xmlns="http://www.w3.org/2000/svg">
  <rect width="128" height="128" rx="30" fill="#081525"/>
  <path d="M91 37C83 29 73 25 62 25C40 25 23 42 23 64C23 86 40 103 62 103C73 103 84 99 92 91" stroke="#22D3EE" stroke-width="12" stroke-linecap="round"/>
  <path d="M39 68C48 58 58 55 69 59C76 62 82 67 88 75" stroke="white" stroke-width="8" stroke-linecap="round"/>
  <path d="M42 68C51 77 61 80 71 77C79 75 85 70 90 63" stroke="#2563EB" stroke-width="6" stroke-linecap="round"/>
  <circle cx="91" cy="63" r="5" fill="white"/>
</svg>
